<?xml version="1.0" encoding="UTF-8"?>
<svg xmlns="http://www.w3.org/2000/svg" xmlns:xlink="http://www.w3.org/1999/xlink" width="238px" height="45px" viewBox="0 0 238 45" version="1.1">
<g id="surface1">
<path style=" stroke:none;fill-rule:nonzero;fill:rgb(0%,0%,0%);fill-opacity:1;" d="M 63.820312 1.183594 C 61.136719 2.445312 58.25 5.300781 57.191406 7.664062 C 56.214844 9.988281 56.339844 14.796875 57.480469 17.324219 C 59.226562 21.238281 61.953125 23.195312 69.351562 25.882812 C 72.117188 26.902344 74.84375 28.042969 75.410156 28.449219 C 77.8125 30.203125 77.972656 33.179688 75.816406 35.257812 C 74.71875 36.277344 74.191406 36.480469 71.789062 36.605469 C 68.335938 36.808594 65.285156 35.953125 62.398438 34.035156 L 60.246094 32.605469 L 57.964844 35.097656 C 54.347656 39.089844 54.429688 38.882812 56.257812 40.3125 C 58.414062 42.066406 62.15625 43.816406 64.835938 44.429688 C 66.21875 44.714844 69.269531 44.878906 72.765625 44.796875 C 78.136719 44.632812 78.621094 44.550781 81.105469 43.371094 C 86.511719 40.800781 88.871094 37.460938 89.152344 31.996094 C 89.234375 30.203125 89.109375 28.003906 88.871094 27.105469 C 87.769531 23.03125 84.519531 19.933594 79.070312 17.851562 C 77.609375 17.28125 75.125 16.34375 73.5 15.730469 C 69.433594 14.183594 68.496094 13.367188 68.496094 11.371094 C 68.496094 8.480469 70.285156 7.5 75.003906 7.828125 C 77.199219 7.988281 78.339844 8.355469 80.453125 9.496094 L 83.136719 10.964844 L 85.578125 8.113281 C 86.917969 6.5625 88.015625 5.132812 88.015625 4.929688 C 88.015625 4.441406 84.636719 2.117188 82.242188 1.019531 C 80.207031 0.0820312 79.679688 0 73.171875 0 C 66.425781 0 66.21875 0.0429688 63.820312 1.183594 Z M 63.820312 1.183594 "/>
<path style=" stroke:none;fill-rule:nonzero;fill:rgb(0%,0%,0%);fill-opacity:1;" d="M 93.386719 21.890625 L 93.503906 43.816406 L 104.886719 43.816406 L 105.011719 36.765625 L 105.089844 29.753906 L 108.671875 29.753906 C 117.167969 29.714844 122.660156 27.066406 125.304688 21.6875 C 126.195312 19.847656 126.441406 18.710938 126.5625 15.691406 C 126.808594 10.273438 126.035156 7.867188 123.066406 4.890625 C 119 0.855469 115.421875 0 102.125 0 L 93.300781 0 Z M 111.84375 8.929688 C 113.957031 9.902344 114.851562 11.699219 114.851562 15 C 114.851562 19.28125 112.863281 21.152344 107.859375 21.523438 L 105.089844 21.726562 L 105.089844 8.152344 L 107.652344 8.152344 C 109.242188 8.152344 110.785156 8.4375 111.84375 8.929688 Z M 111.84375 8.929688 "/>
<path style=" stroke:none;fill-rule:nonzero;fill:rgb(0%,0%,0%);fill-opacity:1;" d="M 1.8125 0.609375 C 1.8125 0.976562 7.949219 41.78125 8.15625 42.921875 L 8.398438 44.023438 L 15.679688 44.023438 C 22.875 44.023438 22.957031 44.023438 23.160156 43.085938 C 23.242188 42.59375 24.378906 35.503906 25.636719 27.3125 C 27.671875 14.0625 28.242188 10.800781 28.242188 12.636719 C 28.242188 13.164062 32.105469 40.148438 32.511719 42.679688 L 32.757812 44.023438 L 47.71875 44.023438 L 47.964844 42.679688 C 48.085938 41.984375 49.550781 32.488281 51.214844 21.601562 C 52.882812 10.71875 54.347656 1.507812 54.429688 1.101562 C 54.59375 0.449219 54.101562 0.40625 49.019531 0.40625 L 43.449219 0.40625 L 41.5 16.179688 C 39.667969 30.894531 38.9375 35.828125 38.855469 34.199219 C 38.816406 33.832031 37.796875 26.125 36.578125 17.121094 C 35.355469 8.113281 34.34375 0.652344 34.34375 0.570312 C 34.34375 0.492188 31.617188 0.40625 28.285156 0.40625 C 22.34375 0.40625 22.226562 0.40625 22.019531 1.304688 C 21.902344 1.835938 20.757812 9.335938 19.457031 18.019531 C 18.160156 26.738281 16.980469 33.832031 16.855469 33.832031 C 16.734375 33.832031 15.921875 26.738281 15.070312 18.019531 C 14.214844 9.335938 13.441406 1.835938 13.320312 1.304688 C 13.117188 0.40625 12.992188 0.40625 7.464844 0.40625 C 4.375 0.40625 1.8125 0.492188 1.8125 0.609375 Z M 1.8125 0.609375 "/>
<path style=" stroke:none;fill-rule:nonzero;fill:rgb(0%,0%,0%);fill-opacity:1;" d="M 131.117188 22.214844 L 131.117188 44.023438 L 141.6875 44.023438 L 141.6875 35.953125 C 141.648438 28.777344 141.363281 22.746094 140.675781 15.285156 C 140.511719 13.207031 140.996094 14.386719 143.925781 23.03125 C 145.792969 28.617188 148.195312 35.664062 149.253906 38.640625 L 151.121094 44.023438 L 165.679688 44.023438 L 165.679688 0.40625 L 155.515625 0.40625 L 155.515625 11.699219 C 155.515625 19.28125 155.714844 24.5 156.121094 27.472656 C 156.449219 29.960938 156.65625 31.996094 156.613281 32.039062 C 156.570312 32.082031 154.050781 24.988281 151.039062 16.265625 L 145.554688 0.40625 L 131.117188 0.40625 Z M 131.117188 22.214844 "/>
<path style=" stroke:none;fill-rule:nonzero;fill:rgb(0%,0%,0%);fill-opacity:1;" d="M 169.34375 4.890625 L 169.34375 9.375 L 180.316406 9.375 L 180.402344 26.777344 L 180.519531 44.226562 L 186.132812 44.347656 L 191.707031 44.46875 L 191.707031 9.375 L 202.152344 9.375 L 202.644531 5.785156 C 202.882812 3.789062 203.089844 1.792969 203.089844 1.304688 L 203.089844 0.40625 L 169.34375 0.40625 Z M 169.34375 4.890625 "/>
<path style=" stroke:none;fill-rule:nonzero;fill:rgb(0%,0%,0%);fill-opacity:1;" d="M 206.34375 22.214844 L 206.34375 44.023438 L 219.964844 44.023438 C 227.445312 44.023438 233.585938 43.898438 233.585938 43.695312 C 233.585938 43.246094 234.359375 37.910156 234.601562 36.359375 L 234.84375 35.054688 L 218.132812 35.054688 L 218.132812 0.40625 L 206.34375 0.40625 Z M 206.34375 22.214844 "/>
</g>
</svg>
